<mxfile host="app.diagrams.net" agent="Mozilla/5.0 (Windows NT 10.0; Win64; x64) AppleWebKit/537.36 (KHTML, like Gecko) Chrome/138.0.0.0 Safari/537.36" version="26.2.14">
  <diagram name="第 1 页" id="JOSDO12hr03OVvD_laY8">
    <mxGraphModel dx="983" dy="541" grid="0" gridSize="10" guides="1" tooltips="1" connect="1" arrows="1" fold="1" page="1" pageScale="1" pageWidth="1654" pageHeight="2336" math="1" shadow="0">
      <root>
        <mxCell id="0" />
        <mxCell id="1" parent="0" />
        <mxCell id="1LT09diSM2LL0TuuiOi5-53" value="&lt;font style=&quot;color: rgb(255, 51, 51);&quot;&gt;Self Attention with Padding Zero Vectors to Key `K` and Value `V`&lt;/font&gt;" style="text;html=1;align=center;verticalAlign=middle;whiteSpace=wrap;rounded=0;fontSize=18;" vertex="1" parent="1">
          <mxGeometry x="320" y="110" width="520" height="50" as="geometry" />
        </mxCell>
        <mxCell id="1LT09diSM2LL0TuuiOi5-54" value="" style="group" vertex="1" connectable="0" parent="1">
          <mxGeometry x="120" y="160" width="860" height="400" as="geometry" />
        </mxCell>
        <mxCell id="1LT09diSM2LL0TuuiOi5-51" value="" style="rounded=0;whiteSpace=wrap;html=1;fillColor=#f5f5f5;fontColor=#333333;strokeColor=#FF3333;dashed=1;dashPattern=8 8;" vertex="1" parent="1LT09diSM2LL0TuuiOi5-54">
          <mxGeometry x="540" y="150" width="240" height="140" as="geometry" />
        </mxCell>
        <mxCell id="1LT09diSM2LL0TuuiOi5-50" value="" style="rounded=0;whiteSpace=wrap;html=1;fillColor=#f5f5f5;fontColor=#333333;strokeColor=#FF3333;dashed=1;dashPattern=8 8;" vertex="1" parent="1LT09diSM2LL0TuuiOi5-54">
          <mxGeometry x="180" y="150" width="240" height="140" as="geometry" />
        </mxCell>
        <mxCell id="1LT09diSM2LL0TuuiOi5-15" style="edgeStyle=orthogonalEdgeStyle;rounded=0;orthogonalLoop=1;jettySize=auto;html=1;exitX=1;exitY=0.5;exitDx=0;exitDy=0;entryX=0;entryY=0.5;entryDx=0;entryDy=0;" edge="1" parent="1LT09diSM2LL0TuuiOi5-54" source="1LT09diSM2LL0TuuiOi5-1" target="1LT09diSM2LL0TuuiOi5-14">
          <mxGeometry relative="1" as="geometry" />
        </mxCell>
        <mxCell id="1LT09diSM2LL0TuuiOi5-1" value="`Q`" style="rounded=0;whiteSpace=wrap;html=1;fontSize=14;" vertex="1" parent="1LT09diSM2LL0TuuiOi5-54">
          <mxGeometry x="140" y="20" width="20" height="120" as="geometry" />
        </mxCell>
        <mxCell id="1LT09diSM2LL0TuuiOi5-8" style="edgeStyle=orthogonalEdgeStyle;rounded=0;orthogonalLoop=1;jettySize=auto;html=1;exitX=1;exitY=0.5;exitDx=0;exitDy=0;entryX=0;entryY=0.5;entryDx=0;entryDy=0;" edge="1" parent="1LT09diSM2LL0TuuiOi5-54" source="1LT09diSM2LL0TuuiOi5-2" target="1LT09diSM2LL0TuuiOi5-7">
          <mxGeometry relative="1" as="geometry" />
        </mxCell>
        <mxCell id="1LT09diSM2LL0TuuiOi5-2" value="`K_3`" style="rounded=0;whiteSpace=wrap;html=1;fontSize=14;" vertex="1" parent="1LT09diSM2LL0TuuiOi5-54">
          <mxGeometry x="140" y="160" width="20" height="120" as="geometry" />
        </mxCell>
        <mxCell id="1LT09diSM2LL0TuuiOi5-3" value="`K_2`" style="rounded=0;whiteSpace=wrap;html=1;fontSize=14;" vertex="1" parent="1LT09diSM2LL0TuuiOi5-54">
          <mxGeometry x="120" y="160" width="20" height="120" as="geometry" />
        </mxCell>
        <mxCell id="1LT09diSM2LL0TuuiOi5-4" value="`K_1`" style="rounded=0;whiteSpace=wrap;html=1;fontSize=14;" vertex="1" parent="1LT09diSM2LL0TuuiOi5-54">
          <mxGeometry x="100" y="160" width="20" height="120" as="geometry" />
        </mxCell>
        <mxCell id="1LT09diSM2LL0TuuiOi5-13" style="edgeStyle=orthogonalEdgeStyle;rounded=0;orthogonalLoop=1;jettySize=auto;html=1;exitX=1;exitY=0.5;exitDx=0;exitDy=0;entryX=0;entryY=0.5;entryDx=0;entryDy=0;" edge="1" parent="1LT09diSM2LL0TuuiOi5-54" source="1LT09diSM2LL0TuuiOi5-7" target="1LT09diSM2LL0TuuiOi5-12">
          <mxGeometry relative="1" as="geometry" />
        </mxCell>
        <mxCell id="1LT09diSM2LL0TuuiOi5-7" value="Padding Zero Vector `\color{red}{K_0=0}`" style="ellipse;whiteSpace=wrap;html=1;fontSize=14;fillColor=#ffe6cc;strokeColor=#d79b00;" vertex="1" parent="1LT09diSM2LL0TuuiOi5-54">
          <mxGeometry x="200" y="160" width="80" height="120" as="geometry" />
        </mxCell>
        <mxCell id="1LT09diSM2LL0TuuiOi5-16" style="edgeStyle=orthogonalEdgeStyle;rounded=0;orthogonalLoop=1;jettySize=auto;html=1;exitX=1;exitY=0;exitDx=0;exitDy=0;entryX=0.5;entryY=1;entryDx=0;entryDy=0;" edge="1" parent="1LT09diSM2LL0TuuiOi5-54" source="1LT09diSM2LL0TuuiOi5-11" target="1LT09diSM2LL0TuuiOi5-14">
          <mxGeometry relative="1" as="geometry" />
        </mxCell>
        <mxCell id="1LT09diSM2LL0TuuiOi5-9" value="`K_3`" style="rounded=0;whiteSpace=wrap;html=1;fontSize=14;" vertex="1" parent="1LT09diSM2LL0TuuiOi5-54">
          <mxGeometry x="380" y="160" width="20" height="120" as="geometry" />
        </mxCell>
        <mxCell id="1LT09diSM2LL0TuuiOi5-10" value="`K_2`" style="rounded=0;whiteSpace=wrap;html=1;fontSize=14;" vertex="1" parent="1LT09diSM2LL0TuuiOi5-54">
          <mxGeometry x="360" y="160" width="20" height="120" as="geometry" />
        </mxCell>
        <mxCell id="1LT09diSM2LL0TuuiOi5-11" value="`K_1`" style="rounded=0;whiteSpace=wrap;html=1;fontSize=14;" vertex="1" parent="1LT09diSM2LL0TuuiOi5-54">
          <mxGeometry x="340" y="160" width="20" height="120" as="geometry" />
        </mxCell>
        <mxCell id="1LT09diSM2LL0TuuiOi5-12" value="`\color{red}{K_0}`" style="rounded=0;whiteSpace=wrap;html=1;fontSize=14;fillColor=#ffe6cc;strokeColor=#d79b00;" vertex="1" parent="1LT09diSM2LL0TuuiOi5-54">
          <mxGeometry x="320" y="160" width="20" height="120" as="geometry" />
        </mxCell>
        <mxCell id="1LT09diSM2LL0TuuiOi5-25" style="rounded=0;orthogonalLoop=1;jettySize=auto;html=1;entryX=0;entryY=0;entryDx=0;entryDy=0;" edge="1" parent="1LT09diSM2LL0TuuiOi5-54" source="1LT09diSM2LL0TuuiOi5-14" target="1LT09diSM2LL0TuuiOi5-19">
          <mxGeometry relative="1" as="geometry" />
        </mxCell>
        <mxCell id="1LT09diSM2LL0TuuiOi5-14" value="`\text{softmax}(\frac{QK^T}{\sqrt{d_K}})`" style="ellipse;whiteSpace=wrap;html=1;fontSize=14;" vertex="1" parent="1LT09diSM2LL0TuuiOi5-54">
          <mxGeometry x="280" y="40" width="160" height="80" as="geometry" />
        </mxCell>
        <mxCell id="1LT09diSM2LL0TuuiOi5-21" value="Attention probability distribution" style="text;html=1;align=center;verticalAlign=middle;whiteSpace=wrap;rounded=0;" vertex="1" parent="1LT09diSM2LL0TuuiOi5-54">
          <mxGeometry x="480" width="120" height="40" as="geometry" />
        </mxCell>
        <mxCell id="1LT09diSM2LL0TuuiOi5-24" value="" style="group;fontSize=8;" vertex="1" connectable="0" parent="1LT09diSM2LL0TuuiOi5-54">
          <mxGeometry x="530" y="40" width="20" height="80" as="geometry" />
        </mxCell>
        <mxCell id="1LT09diSM2LL0TuuiOi5-17" value="`0.8`" style="rounded=0;whiteSpace=wrap;html=1;fontSize=8;" vertex="1" parent="1LT09diSM2LL0TuuiOi5-24">
          <mxGeometry width="20" height="20" as="geometry" />
        </mxCell>
        <mxCell id="1LT09diSM2LL0TuuiOi5-18" value="`0.01`" style="rounded=0;whiteSpace=wrap;html=1;fontSize=8;" vertex="1" parent="1LT09diSM2LL0TuuiOi5-24">
          <mxGeometry y="20" width="20" height="20" as="geometry" />
        </mxCell>
        <mxCell id="1LT09diSM2LL0TuuiOi5-19" value="`0.05`" style="rounded=0;whiteSpace=wrap;html=1;fontSize=8;" vertex="1" parent="1LT09diSM2LL0TuuiOi5-24">
          <mxGeometry y="40" width="20" height="20" as="geometry" />
        </mxCell>
        <mxCell id="1LT09diSM2LL0TuuiOi5-20" value="`0.14`" style="rounded=0;whiteSpace=wrap;html=1;fontSize=8;" vertex="1" parent="1LT09diSM2LL0TuuiOi5-24">
          <mxGeometry y="60" width="20" height="20" as="geometry" />
        </mxCell>
        <mxCell id="1LT09diSM2LL0TuuiOi5-26" style="edgeStyle=orthogonalEdgeStyle;rounded=0;orthogonalLoop=1;jettySize=auto;html=1;exitX=1;exitY=0.5;exitDx=0;exitDy=0;entryX=0;entryY=0.5;entryDx=0;entryDy=0;" edge="1" source="1LT09diSM2LL0TuuiOi5-27" target="1LT09diSM2LL0TuuiOi5-31" parent="1LT09diSM2LL0TuuiOi5-54">
          <mxGeometry relative="1" as="geometry" />
        </mxCell>
        <mxCell id="1LT09diSM2LL0TuuiOi5-30" style="edgeStyle=orthogonalEdgeStyle;rounded=0;orthogonalLoop=1;jettySize=auto;html=1;exitX=1;exitY=0.5;exitDx=0;exitDy=0;entryX=0;entryY=0.5;entryDx=0;entryDy=0;" edge="1" source="1LT09diSM2LL0TuuiOi5-31" target="1LT09diSM2LL0TuuiOi5-35" parent="1LT09diSM2LL0TuuiOi5-54">
          <mxGeometry relative="1" as="geometry" />
        </mxCell>
        <mxCell id="1LT09diSM2LL0TuuiOi5-31" value="Padding Zero Vector `\color{red}{V_0=0}`" style="ellipse;whiteSpace=wrap;html=1;fontSize=14;fillColor=#ffe6cc;strokeColor=#d79b00;" vertex="1" parent="1LT09diSM2LL0TuuiOi5-54">
          <mxGeometry x="560" y="160" width="80" height="120" as="geometry" />
        </mxCell>
        <mxCell id="1LT09diSM2LL0TuuiOi5-36" value="" style="group" vertex="1" connectable="0" parent="1LT09diSM2LL0TuuiOi5-54">
          <mxGeometry x="460" y="180" width="60" height="80" as="geometry" />
        </mxCell>
        <mxCell id="1LT09diSM2LL0TuuiOi5-27" value="`V_3`" style="rounded=0;whiteSpace=wrap;html=1;fontSize=14;" vertex="1" parent="1LT09diSM2LL0TuuiOi5-36">
          <mxGeometry x="40" width="20" height="80" as="geometry" />
        </mxCell>
        <mxCell id="1LT09diSM2LL0TuuiOi5-28" value="`V_2`" style="rounded=0;whiteSpace=wrap;html=1;fontSize=14;" vertex="1" parent="1LT09diSM2LL0TuuiOi5-36">
          <mxGeometry x="20" width="20" height="80" as="geometry" />
        </mxCell>
        <mxCell id="1LT09diSM2LL0TuuiOi5-29" value="`V_1`" style="rounded=0;whiteSpace=wrap;html=1;fontSize=14;" vertex="1" parent="1LT09diSM2LL0TuuiOi5-36">
          <mxGeometry width="20" height="80" as="geometry" />
        </mxCell>
        <mxCell id="1LT09diSM2LL0TuuiOi5-37" value="" style="group" vertex="1" connectable="0" parent="1LT09diSM2LL0TuuiOi5-54">
          <mxGeometry x="680" y="180" width="80" height="80" as="geometry" />
        </mxCell>
        <mxCell id="1LT09diSM2LL0TuuiOi5-32" value="`V_3`" style="rounded=0;whiteSpace=wrap;html=1;fontSize=14;" vertex="1" parent="1LT09diSM2LL0TuuiOi5-37">
          <mxGeometry x="60" width="20" height="80" as="geometry" />
        </mxCell>
        <mxCell id="1LT09diSM2LL0TuuiOi5-33" value="`V_2`" style="rounded=0;whiteSpace=wrap;html=1;fontSize=14;" vertex="1" parent="1LT09diSM2LL0TuuiOi5-37">
          <mxGeometry x="40" width="20" height="80" as="geometry" />
        </mxCell>
        <mxCell id="1LT09diSM2LL0TuuiOi5-34" value="`V_1`" style="rounded=0;whiteSpace=wrap;html=1;fontSize=14;" vertex="1" parent="1LT09diSM2LL0TuuiOi5-37">
          <mxGeometry x="20" width="20" height="80" as="geometry" />
        </mxCell>
        <mxCell id="1LT09diSM2LL0TuuiOi5-35" value="`\color{red}{V_0}`" style="rounded=0;whiteSpace=wrap;html=1;fontSize=14;fillColor=#ffe6cc;strokeColor=#d79b00;" vertex="1" parent="1LT09diSM2LL0TuuiOi5-37">
          <mxGeometry width="20" height="80" as="geometry" />
        </mxCell>
        <mxCell id="1LT09diSM2LL0TuuiOi5-43" style="edgeStyle=orthogonalEdgeStyle;rounded=0;orthogonalLoop=1;jettySize=auto;html=1;exitX=1;exitY=0.5;exitDx=0;exitDy=0;entryX=0;entryY=0.5;entryDx=0;entryDy=0;" edge="1" parent="1LT09diSM2LL0TuuiOi5-54" source="1LT09diSM2LL0TuuiOi5-38" target="1LT09diSM2LL0TuuiOi5-42">
          <mxGeometry relative="1" as="geometry" />
        </mxCell>
        <mxCell id="1LT09diSM2LL0TuuiOi5-38" value="`\text{softmax}(\frac{QK^T}{\sqrt{d_K}})V`" style="ellipse;whiteSpace=wrap;html=1;fontSize=14;" vertex="1" parent="1LT09diSM2LL0TuuiOi5-54">
          <mxGeometry x="640" y="40" width="160" height="80" as="geometry" />
        </mxCell>
        <mxCell id="1LT09diSM2LL0TuuiOi5-40" style="rounded=0;orthogonalLoop=1;jettySize=auto;html=1;exitX=1;exitY=0;exitDx=0;exitDy=0;entryX=0;entryY=0.5;entryDx=0;entryDy=0;" edge="1" parent="1LT09diSM2LL0TuuiOi5-54" source="1LT09diSM2LL0TuuiOi5-19" target="1LT09diSM2LL0TuuiOi5-38">
          <mxGeometry relative="1" as="geometry" />
        </mxCell>
        <mxCell id="1LT09diSM2LL0TuuiOi5-41" style="edgeStyle=orthogonalEdgeStyle;rounded=0;orthogonalLoop=1;jettySize=auto;html=1;exitX=0;exitY=0;exitDx=0;exitDy=0;entryX=0.5;entryY=1;entryDx=0;entryDy=0;" edge="1" parent="1LT09diSM2LL0TuuiOi5-54" source="1LT09diSM2LL0TuuiOi5-33" target="1LT09diSM2LL0TuuiOi5-38">
          <mxGeometry relative="1" as="geometry" />
        </mxCell>
        <mxCell id="1LT09diSM2LL0TuuiOi5-42" value="`\mathbf{y}`" style="rounded=0;whiteSpace=wrap;html=1;fontSize=14;" vertex="1" parent="1LT09diSM2LL0TuuiOi5-54">
          <mxGeometry x="840" y="40" width="20" height="80" as="geometry" />
        </mxCell>
        <mxCell id="1LT09diSM2LL0TuuiOi5-45" style="edgeStyle=orthogonalEdgeStyle;rounded=0;orthogonalLoop=1;jettySize=auto;html=1;exitX=0;exitY=0.5;exitDx=0;exitDy=0;entryX=0.5;entryY=1;entryDx=0;entryDy=0;curved=1;dashed=1;" edge="1" parent="1LT09diSM2LL0TuuiOi5-54" source="1LT09diSM2LL0TuuiOi5-44" target="1LT09diSM2LL0TuuiOi5-3">
          <mxGeometry relative="1" as="geometry" />
        </mxCell>
        <mxCell id="1LT09diSM2LL0TuuiOi5-46" style="edgeStyle=orthogonalEdgeStyle;rounded=0;orthogonalLoop=1;jettySize=auto;html=1;exitX=0;exitY=0.5;exitDx=0;exitDy=0;entryX=0;entryY=0.5;entryDx=0;entryDy=0;curved=1;dashed=1;" edge="1" parent="1LT09diSM2LL0TuuiOi5-54" source="1LT09diSM2LL0TuuiOi5-44" target="1LT09diSM2LL0TuuiOi5-1">
          <mxGeometry relative="1" as="geometry">
            <Array as="points">
              <mxPoint y="360" />
              <mxPoint y="80" />
            </Array>
          </mxGeometry>
        </mxCell>
        <mxCell id="1LT09diSM2LL0TuuiOi5-48" style="edgeStyle=orthogonalEdgeStyle;rounded=0;orthogonalLoop=1;jettySize=auto;html=1;exitX=1;exitY=0.5;exitDx=0;exitDy=0;entryX=1;entryY=1;entryDx=0;entryDy=0;curved=1;dashed=1;" edge="1" parent="1LT09diSM2LL0TuuiOi5-54" source="1LT09diSM2LL0TuuiOi5-44" target="1LT09diSM2LL0TuuiOi5-34">
          <mxGeometry relative="1" as="geometry" />
        </mxCell>
        <mxCell id="1LT09diSM2LL0TuuiOi5-44" value="`\mathbf{x}`" style="rounded=0;whiteSpace=wrap;html=1;fontSize=14;" vertex="1" parent="1LT09diSM2LL0TuuiOi5-54">
          <mxGeometry x="420" y="320" width="20" height="80" as="geometry" />
        </mxCell>
        <mxCell id="1LT09diSM2LL0TuuiOi5-49" value="transform to `Q, K, V`" style="text;html=1;align=center;verticalAlign=middle;whiteSpace=wrap;rounded=0;fontSize=14;" vertex="1" parent="1LT09diSM2LL0TuuiOi5-54">
          <mxGeometry x="350" y="320" width="160" height="30" as="geometry" />
        </mxCell>
      </root>
    </mxGraphModel>
  </diagram>
</mxfile>
